<svg xmlns="http://www.w3.org/2000/svg" viewBox="0 0 512 512" role="img" aria-labelledby="title desc">
  <title id="title">Timelines whale icon</title>
  <desc id="desc">Original white whale icon on Twitter blue background for the Timelines app.</desc>
  <rect width="512" height="512" rx="112" fill="#1DA1F2"/>
  <path
    fill="#fff"
    d="M96 284c0-64 59-115 137-115 59 0 107 24 139 64 24-8 50-27 77-55 9-9 25-2 24 11-2 27-18 52-42 67 26 13 42 36 45 63 2 14-14 23-26 15-31-21-58-34-84-36-31 45-82 73-141 73-74 0-129-36-129-87Z"
  />
  <path
    fill="#1DA1F2"
    d="M169 246a9 9 0 1 0 0-18 9 9 0 0 0 0 18Z"
  />
  <path
    fill="#1DA1F2"
    d="M151 306c26 24 65 38 108 38 41 0 78-13 104-36 5-4 6-11 2-16s-12-5-17-1c-22 19-54 30-89 30-37 0-70-12-92-32-5-4-12-4-16 1s-4 12 0 16Z"
  />
  <path
    fill="#1DA1F2"
    d="M215 281c32 12 75 12 107-1 6-2 9-9 7-15s-9-9-15-7c-27 10-62 10-91 0-6-2-13 1-15 7-2 7 1 14 7 16Z"
  />
  <path
    fill="#fff"
    d="M111 223c14-33 43-57 83-66 9-2 17 5 16 14-1 8-7 14-15 16-28 7-49 24-60 49-4 9-15 12-22 6-5-5-6-12-2-19Z"
    opacity=".92"
  />
</svg>
