<svg xmlns="http://www.w3.org/2000/svg" viewBox="0 0 512 512" role="img" aria-labelledby="title desc">
  <title id="title">Timelines whale icon</title>
  <desc id="desc">Original white whale app icon on Twitter blue background for the Timelines app.</desc>
  <rect width="512" height="512" rx="112" fill="#1DA1F2"/>

  <path
    fill="#fff"
    opacity=".28"
    d="M121 389c14-16 28-16 42 0s28 16 42 0 28-16 42 0 28 16 42 0 28-16 42 0 28 16 42 0 28-16 42 0 28 16 42 0v35H79v-35c14 16 28 16 42 0Z"
  />
  <path
    fill="none"
    stroke="#fff"
    stroke-linecap="round"
    stroke-width="3"
    opacity=".7"
    d="M164 263c-11-46-9-92 7-137M227 252c-6-52 2-99 25-141M292 261c8-49 25-91 52-126M354 291c27-29 52-60 74-94"
  />
  <path
    fill="#fff"
    d="M82 307c4-67 63-116 146-119 66-2 116 20 153 64 10 12 19 26 25 41 16-11 30-27 40-49 5-11 20-10 24 2 8 25 2 51-18 74 24 2 46 14 62 35 8 10 0 25-13 24-31-3-60-15-87-35-14 17-35 30-62 39-36 13-82 17-132 10-68-9-121-39-138-86Z"
  />
  <path
    fill="#1DA1F2"
    d="M159 285a8 8 0 1 0 0-16 8 8 0 0 0 0 16Z"
  />
  <path
    fill="none"
    stroke="#1DA1F2"
    stroke-linecap="round"
    stroke-width="9"
    d="M112 321c56 35 133 55 226 42"
  />
  <path
    fill="none"
    stroke="#1DA1F2"
    stroke-linecap="round"
    stroke-width="5"
    opacity=".78"
    d="M231 369c18-18 27-46 28-83M274 372c18-20 28-47 31-82M318 368c14-18 22-40 24-66"
  />
  <path
    fill="#fff"
    d="M155 118a9 9 0 1 0 0-18 9 9 0 0 0 0 18ZM248 105a10 10 0 1 0 0-20 10 10 0 0 0 0 20ZM351 130a9 9 0 1 0 0-18 9 9 0 0 0 0 18ZM435 192a8 8 0 1 0 0-16 8 8 0 0 0 0 16Z"
  />
</svg>
